<svg width="66" height="66" viewBox="0 0 66 66" fill="none" xmlns="http://www.w3.org/2000/svg">
<g clip-path="url(#clip0_114_3396)">
<path d="M33 66C14.8056 66 0 51.1996 0 33C0 14.8004 14.8056 0 33 0C51.1944 0 66 14.8056 66 33C66 51.1944 51.1944 66 33 66ZM33 0.325744C14.9842 0.325744 0.325744 14.9842 0.325744 33C0.325744 51.0158 14.9842 65.6743 33 65.6743C51.0158 65.6743 65.6743 51.0158 65.6743 33C65.6743 14.9842 51.0158 0.325744 33 0.325744Z" fill="#212121"/>
<path d="M18.042 6.75678L16.7285 4.48183L16.4448 4.6447L17.7583 6.91965C17.8528 6.86186 17.9474 6.80932 18.042 6.75678ZM2.7898 33.0002C2.7898 32.9424 2.7898 32.8899 2.7898 32.8373H0.17334V33.1631H2.79506C2.79506 33.1106 2.79506 33.0528 2.79506 33.0002H2.7898ZM10.9124 8.71125L12.6672 10.6605C12.746 10.5869 12.8301 10.5186 12.9141 10.445L11.1541 8.49058L10.9124 8.71125V8.71125ZM26.8791 3.41002L26.3327 0.846098L26.0122 0.9144L26.5586 3.48358C26.6637 3.46256 26.7688 3.43104 26.8791 3.41002ZM20.8634 5.33296L19.7968 2.93717L19.4973 3.06852L20.5639 5.46431C20.6637 5.41703 20.7635 5.375 20.8634 5.32771V5.33296ZM23.8213 4.21388L23.0122 1.72351L22.7022 1.82333L23.5113 4.31895C23.6164 4.28218 23.7162 4.2454 23.8213 4.21388ZM2.97894 29.6797L0.37299 29.4065L0.336212 29.7323L2.94217 30.0055C2.95267 29.8951 2.96844 29.7901 2.97894 29.6797ZM3.48858 26.5589L0.924653 26.0125L0.856352 26.333L3.41502 26.8741C3.43604 26.769 3.46756 26.664 3.48858 26.5536V26.5589ZM8.49558 11.1543L10.45 12.9144C10.5236 12.8303 10.5919 12.7463 10.6655 12.6675L8.71625 10.9127L8.49558 11.1543V11.1543ZM30.0052 2.94242L29.732 0.331212L29.4063 0.36799L29.6795 2.9792C29.7898 2.96869 29.8949 2.95293 30.0052 2.94242ZM4.32395 23.5063L1.83358 22.6972L1.73376 23.0072L4.22413 23.8163C4.25565 23.7113 4.29243 23.6114 4.32921 23.5063H4.32395ZM8.66371 15.1105L6.54111 13.5659L6.34672 13.8338L8.47456 15.3785C8.53761 15.2892 8.60066 15.1999 8.66371 15.1105ZM6.92991 17.7533L4.65495 16.4398L4.49208 16.7235L6.76703 18.037C6.81957 17.9424 6.87737 17.8479 6.92991 17.7533ZM5.47457 20.5641L3.07877 19.4976L2.94742 19.7971L5.34322 20.8636C5.38525 20.7638 5.43253 20.664 5.47982 20.5641H5.47457ZM13.5709 6.53612L15.1155 8.65871C15.2049 8.59566 15.2942 8.53261 15.3835 8.46957L13.8388 6.34172L13.5709 6.53612ZM59.2434 18.0422L61.5341 16.7183L61.3712 16.4345L59.0805 17.7585C59.1383 17.8531 59.1908 17.9477 59.2434 18.0422ZM60.6672 20.8636L63.0788 19.7918L62.9474 19.4923L60.5359 20.5694C60.5831 20.6692 60.6252 20.769 60.6725 20.8689L60.6672 20.8636ZM57.5359 15.3838L59.6795 13.8286L59.4851 13.5606L57.3467 15.1158C57.4098 15.2051 57.4728 15.2944 57.5359 15.3838ZM61.7863 23.8216L64.2924 23.0072L64.1926 22.6972L61.6812 23.5116C61.718 23.6167 61.7548 23.7165 61.7863 23.8216ZM63.063 30.0055L65.69 29.7323L65.6584 29.4065L63.0315 29.685C63.042 29.7953 63.0577 29.9004 63.0683 30.0107L63.063 30.0055ZM62.5901 26.8794L65.1646 26.333L65.0963 26.0125L62.5166 26.5589C62.5376 26.664 62.5691 26.769 62.5901 26.8794V26.8794ZM57.5253 11.1438L57.3047 10.9021L55.3397 12.6675C55.4133 12.7463 55.4816 12.8303 55.5551 12.9144L57.5201 11.1438H57.5253ZM36.0052 2.94242C36.1155 2.95293 36.2206 2.96869 36.331 2.9792L36.6094 0.352228L36.2837 0.31545L36.0052 2.94242ZM42.1891 4.21913C42.2942 4.25065 42.394 4.28743 42.4991 4.32421L43.3134 1.81282L43.0035 1.713L42.1891 4.21913V4.21913ZM39.1313 3.41528C39.2416 3.43629 39.3467 3.46782 39.4518 3.48883L39.9982 0.909146L39.6777 0.840844L39.1313 3.41528ZM53.0963 10.4503C53.1803 10.5239 53.2644 10.5922 53.3432 10.6657L55.1085 8.70074L54.8669 8.48007L53.0963 10.445V10.4503ZM32.8371 2.79531C32.8896 2.79531 32.9474 2.79531 33 2.79531C33.0525 2.79531 33.1103 2.79531 33.1628 2.79531V0.163086H32.8371V2.79531V2.79531ZM45.1418 5.33822C45.2416 5.38025 45.3415 5.42754 45.4413 5.47482L46.5183 3.06326L46.2189 2.93191L45.1471 5.34347L45.1418 5.33822ZM50.6217 8.46957C50.711 8.53261 50.8003 8.59566 50.8896 8.65871L52.4448 6.52035L52.1768 6.32596L50.6217 8.46957ZM47.9632 6.76204C48.0577 6.81458 48.1523 6.87237 48.2469 6.92491L49.5709 4.63419L49.2872 4.47132L47.9632 6.76204ZM19.5026 62.9267L19.8021 63.058L20.8686 60.6675C20.7688 60.6254 20.669 60.5782 20.5691 60.5309L19.5026 62.9214V62.9267ZM53.091 55.5554L54.8563 57.5151L55.098 57.2944L53.338 55.34C53.2591 55.4135 53.1751 55.4818 53.091 55.5554ZM50.6217 57.5309L52.1716 59.664L52.4395 59.4696L50.8896 57.3365C50.8003 57.3995 50.711 57.4626 50.6217 57.5256V57.5309ZM55.3397 53.333L57.2942 55.093L57.5148 54.8514L55.5551 53.086C55.4816 53.1701 55.4133 53.2542 55.3397 53.333ZM47.9579 59.2384L49.2767 61.5186L49.5604 61.3557L48.2416 59.0755C48.1471 59.1333 48.0525 59.1859 47.9579 59.2384ZM57.3362 50.8846L59.4693 52.4346L59.6637 52.1666L57.5253 50.6167C57.4623 50.706 57.3992 50.7953 57.3362 50.8846V50.8846ZM42.1733 61.7866L42.9824 64.2822L43.2924 64.1824L42.4781 61.6815C42.373 61.7183 42.2732 61.755 42.1681 61.7866H42.1733ZM45.1313 60.6675L46.2031 63.0685L46.5026 62.9372L45.4308 60.5309C45.331 60.5782 45.2311 60.6202 45.1313 60.6675ZM61.6707 42.4888L64.1768 43.3032L64.2767 42.9932L61.7705 42.1789C61.739 42.2839 61.7022 42.3838 61.6654 42.4888H61.6707ZM62.5061 39.4416L65.0858 39.988L65.1541 39.6675L62.5796 39.1211C62.5586 39.2314 62.5271 39.3365 62.5061 39.4416V39.4416ZM63.0157 36.3207L65.6427 36.5992L65.6742 36.2734L63.0472 35.995C63.0367 36.1053 63.021 36.2104 63.0105 36.3207H63.0157ZM2.93166 35.995L0.330958 36.2682L0.367736 36.5939L2.97369 36.3207C2.96318 36.2104 2.94742 36.1053 2.93691 35.995H2.93166ZM63.1996 32.8373C63.1996 32.8951 63.1996 32.9477 63.1996 33.0002C63.1996 33.0528 63.1996 33.1106 63.1996 33.1631H65.8423V32.8373H63.1996V32.8373ZM39.1155 62.5904L39.6619 65.1543L39.9824 65.086L39.436 62.5169C39.3309 62.5431 39.2259 62.5694 39.1155 62.5904ZM60.5253 45.4363L62.9316 46.5081L63.063 46.2086L60.6567 45.1368C60.6147 45.2367 60.5674 45.3365 60.5201 45.4363H60.5253ZM59.0753 48.2472L61.3607 49.5659L61.5236 49.2822L59.2381 47.9634C59.1856 48.058 59.1278 48.1526 59.0753 48.2472ZM6.75653 47.9687L4.48682 49.2769L4.6497 49.5606L6.9194 48.2524C6.86161 48.1578 6.80907 48.0633 6.75653 47.9687ZM35.9947 63.0685L36.2679 65.6797L36.5936 65.6482L36.3204 63.0318C36.2101 63.0423 36.105 63.058 35.9947 63.0685V63.0685ZM10.9124 57.2944L11.1541 57.5151L12.9089 55.5659C12.8248 55.4923 12.7408 55.424 12.662 55.3505L10.9124 57.2944V57.2944ZM8.49558 54.8514L8.71625 55.093L10.6602 53.3435C10.5866 53.2647 10.5183 53.1754 10.4448 53.0965L8.49558 54.8514ZM3.40977 39.1316L0.856352 39.6727L0.924653 39.9932L3.48332 39.4468C3.46231 39.3417 3.43078 39.2367 3.40977 39.1263V39.1316ZM4.21362 42.1894L1.72851 42.9985L1.82833 43.3085L4.3187 42.4993C4.28192 42.3943 4.24514 42.2944 4.21362 42.1894ZM5.33271 45.1473L2.94217 46.2086L3.07351 46.5081L5.46406 45.4416C5.41677 45.3417 5.37474 45.2419 5.32745 45.1421L5.33271 45.1473ZM8.46406 50.6324L6.34146 52.1719L6.53586 52.4398L8.6532 50.9004C8.59015 50.8111 8.5271 50.7218 8.46406 50.6324ZM29.4063 65.643L29.732 65.6745L30.0052 63.0738C29.8949 63.0633 29.7898 63.0475 29.6795 63.037L29.4063 65.643ZM32.8318 63.2209V65.8531H33.1576V63.2209C33.105 63.2209 33.0472 63.2209 32.9947 63.2209C32.9422 63.2209 32.8844 63.2209 32.8318 63.2209V63.2209ZM26.0122 65.0913L26.3327 65.1596L26.8739 62.6062C26.7688 62.5852 26.6637 62.5536 26.5534 62.5326L26.007 65.0913H26.0122ZM22.697 64.1876L23.007 64.2874L23.8161 61.8023C23.711 61.7708 23.6112 61.7288 23.5061 61.6972L22.697 64.1876V64.1876ZM13.5656 59.4801L13.8336 59.6745L15.373 57.5519C15.2837 57.4888 15.1944 57.4258 15.105 57.3627L13.5656 59.4801ZM16.4395 61.3663L16.7232 61.5291L18.0315 59.2594C17.9369 59.2069 17.8423 59.1491 17.7478 59.0965L16.4395 61.3663V61.3663Z" fill="#212121"/>
<path d="M4.32395 17.0072L8.31169 19.3084C8.46931 19.0195 8.63218 18.7358 8.80556 18.4573L4.81782 16.1561L4.32395 17.0072V17.0072ZM19.3187 8.31195L17.0122 4.31895L16.1611 4.81282L18.4623 8.80056C18.7408 8.63244 19.0297 8.46957 19.3187 8.30669V8.31195ZM4.76003 33.0002C4.76003 32.8321 4.77054 32.6692 4.77054 32.5063H0.17334V33.4941H4.77579C4.77579 33.3312 4.76528 33.1683 4.76528 33.0002H4.76003ZM46.6917 8.31195C46.9807 8.46957 47.2644 8.63244 47.5429 8.80056L49.8546 4.79706L49.0035 4.30319L46.6917 8.30669V8.31195ZM32.5113 4.77079C32.6742 4.77079 32.8371 4.76028 33.0052 4.76028C33.1733 4.76028 33.331 4.77079 33.4991 4.77079V0.163086H32.5166V4.77605L32.5113 4.77079ZM61.7022 17.002L61.2084 16.1508L57.2049 18.4626C57.373 18.7463 57.5359 19.03 57.6987 19.319L61.7022 17.0072V17.002ZM57.2049 47.5379L61.2031 49.8443L61.697 48.9932L57.6987 46.6815C57.5411 46.9704 57.3782 47.2542 57.2049 47.5326V47.5379ZM61.2294 32.5063C61.2294 32.6692 61.2399 32.8321 61.2399 33.0002C61.2399 33.1683 61.2294 33.326 61.2294 33.4941H65.8476V32.5063H61.2294V32.5063ZM46.6917 57.6885L48.9982 61.6867L49.8493 61.1929L47.5429 57.1999C47.2592 57.368 46.9754 57.5309 46.6917 57.6937V57.6885ZM4.32921 48.988L4.82308 49.8391L8.80556 47.5379C8.63744 47.2594 8.47457 46.9704 8.31169 46.6867L4.32921 48.988V48.988ZM32.5113 61.2296V65.8373H33.4938V61.2296C33.331 61.2296 33.1681 61.2401 33 61.2401C32.8318 61.2401 32.6742 61.2296 32.5061 61.2296H32.5113ZM16.1663 61.1876L17.0175 61.6815L19.3187 57.699C19.0297 57.5414 18.746 57.3785 18.4623 57.2051L16.1611 61.1876H16.1663Z" fill="#212121"/>
<path d="M9.21008 32.6646C9.21008 34.4825 8.48504 35.3914 7.02969 35.3914C6.7775 35.3914 6.5726 35.3704 6.42549 35.3284V34.8713C6.60412 34.9238 6.79852 34.9554 7.02444 34.9554C7.54983 34.9554 7.94913 34.7977 8.21708 34.4825C8.48504 34.1673 8.63215 33.6839 8.65316 33.0377H8.61638C8.49554 33.2111 8.33792 33.3477 8.13828 33.437C7.93863 33.5263 7.71796 33.5736 7.46577 33.5736C7.0402 33.5736 6.70395 33.4527 6.45701 33.2058C6.20483 32.9589 6.08398 32.6174 6.08398 32.176C6.08398 31.6927 6.22059 31.3144 6.5043 31.0307C6.78276 30.7522 7.15053 30.6104 7.60237 30.6104C7.92812 30.6104 8.21708 30.6892 8.45877 30.852C8.70045 31.0149 8.88959 31.2513 9.02094 31.5613C9.15229 31.8713 9.22059 32.2391 9.22059 32.6594L9.21008 32.6646ZM7.59187 31.0674C7.28188 31.0674 7.0402 31.162 6.86682 31.3564C6.6987 31.5508 6.60938 31.8188 6.60938 32.1708C6.60938 32.4755 6.68819 32.7172 6.84581 32.8906C7.00342 33.0639 7.23985 33.1533 7.5656 33.1533C7.76525 33.1533 7.94913 33.1112 8.11726 33.0377C8.28539 32.9589 8.41673 32.8538 8.51131 32.7172C8.61113 32.5806 8.65842 32.4387 8.65842 32.2916C8.65842 32.0709 8.61113 31.866 8.52707 31.6769C8.43775 31.4878 8.31166 31.3406 8.14878 31.2303C7.98591 31.12 7.80202 31.0674 7.59712 31.0674H7.59187Z" fill="#212121"/>
<path d="M11.1958 23.0546H10.6652V19.7447C10.6652 19.4715 10.6757 19.2088 10.6915 18.9618C10.6442 19.0039 10.5916 19.0511 10.5391 19.1037C10.4813 19.151 10.2239 19.3611 9.75625 19.7236L9.46729 19.3611L10.7387 18.4102H11.1958V23.0546V23.0546Z" fill="#212121"/>
<path d="M16.2029 20.7323C16.2029 21.5362 16.0716 22.1351 15.8141 22.5292C15.5514 22.9232 15.1521 23.1229 14.611 23.1229C14.0698 23.1229 13.702 22.9232 13.4341 22.5134C13.1661 22.1089 13.0295 21.5152 13.0295 20.7323C13.0295 19.9495 13.1609 19.3243 13.4183 18.9302C13.681 18.5414 14.0751 18.3418 14.611 18.3418C15.1469 18.3418 15.5252 18.5467 15.7984 18.9513C16.0663 19.3611 16.2029 19.9548 16.2029 20.7271V20.7323ZM13.5812 20.7323C13.5812 21.4048 13.6653 21.8987 13.8281 22.2087C13.991 22.5134 14.2537 22.671 14.611 22.671C14.9682 22.671 15.2362 22.5134 15.3991 22.2034C15.5619 21.8882 15.6407 21.3996 15.6407 20.7376C15.6407 20.0756 15.5619 19.5817 15.3991 19.2717C15.2362 18.9618 14.9735 18.8094 14.611 18.8094C14.2485 18.8094 13.991 18.9618 13.8281 19.2665C13.6653 19.5712 13.5812 20.0651 13.5812 20.7376V20.7323Z" fill="#212121"/>
<path d="M11.0435 42.8936C11.4795 42.8936 11.8263 42.9881 12.0837 43.1878C12.3412 43.3822 12.4673 43.6554 12.4673 44.0021C12.4673 44.2281 12.3937 44.4382 12.2466 44.6274C12.0995 44.8165 11.8683 44.9846 11.5426 45.1422C11.9314 45.3209 12.2098 45.51 12.3727 45.7097C12.5356 45.9093 12.6196 46.1405 12.6196 46.3979C12.6196 46.7815 12.4778 47.0915 12.2046 47.3226C11.9261 47.5538 11.5478 47.6694 11.0645 47.6694C10.5549 47.6694 10.1608 47.5591 9.88235 47.3436C9.60389 47.1282 9.46729 46.8182 9.46729 46.4242C9.46729 45.8883 9.80354 45.4785 10.4708 45.179C10.1661 45.0161 9.95065 44.8375 9.8193 44.6431C9.68795 44.4487 9.6249 44.2386 9.6249 44.0021C9.6249 43.6659 9.751 43.3979 10.0084 43.1983C10.2659 42.9986 10.6074 42.8988 11.0382 42.8988L11.0435 42.8936ZM10.0032 46.4295C10.0032 46.6816 10.0925 46.8813 10.2764 47.0232C10.4603 47.165 10.7125 47.2386 11.0435 47.2386C11.3745 47.2386 11.6214 47.165 11.8053 47.0126C11.9892 46.8655 12.0785 46.6606 12.0785 46.4032C12.0785 46.1983 11.9944 46.0144 11.8211 45.8568C11.6529 45.6992 11.3534 45.5415 10.9279 45.3944C10.6021 45.531 10.3657 45.6781 10.2186 45.8463C10.0715 46.0091 9.99793 46.2088 9.99793 46.4347L10.0032 46.4295ZM11.033 43.3191C10.7598 43.3191 10.5443 43.3822 10.392 43.5083C10.2344 43.6344 10.1556 43.8077 10.1556 44.0179C10.1556 44.2123 10.2186 44.3804 10.3499 44.517C10.476 44.6589 10.7177 44.7955 11.0645 44.9373C11.3797 44.8112 11.6004 44.6746 11.7317 44.5275C11.8631 44.3804 11.9261 44.2123 11.9261 44.0179C11.9261 43.8077 11.8473 43.6344 11.6897 43.5083C11.5321 43.3822 11.3114 43.3191 11.033 43.3191V43.3191Z" fill="#212121"/>
<path d="M20.4588 14.0703H19.9281V10.7603C19.9281 10.4871 19.9334 10.2244 19.9544 9.97744C19.9071 10.0247 19.8598 10.072 19.802 10.1193C19.7442 10.1718 19.4868 10.3767 19.0192 10.7393L18.7302 10.3767L20.0017 9.42578H20.4588V14.0703Z" fill="#212121"/>
<path d="M24.2993 14.0703H23.7687V10.7603C23.7687 10.4871 23.7792 10.2244 23.795 9.97744C23.7477 10.0247 23.7004 10.072 23.6426 10.1193C23.5848 10.1718 23.3221 10.3767 22.8598 10.7393L22.5708 10.3767L23.8423 9.42578H24.2993V14.0703Z" fill="#212121"/>
<path d="M19.3501 56.5797L21.3413 52.4238H18.7249V51.9404H21.9193V52.3607L19.9543 56.5797H19.3501Z" fill="#212121"/>
<path d="M31.4868 57.883C31.4868 56.9689 31.6707 56.2858 32.0385 55.834C32.4063 55.3822 32.9474 55.1562 33.6672 55.1562C33.9141 55.1562 34.1085 55.1773 34.2504 55.214V55.6659C34.0823 55.6133 33.8879 55.5871 33.6725 55.5871C33.1576 55.5871 32.7635 55.7447 32.4956 56.0494C32.2224 56.3594 32.0753 56.848 32.049 57.5153H32.091C32.3327 57.1527 32.711 56.9689 33.2311 56.9689C33.6619 56.9689 34.0035 57.095 34.2504 57.3471C34.4973 57.5993 34.6234 57.9408 34.6234 58.3717C34.6234 58.855 34.4868 59.2333 34.2136 59.5065C33.9404 59.785 33.5726 59.9216 33.1103 59.9216C32.6112 59.9216 32.2171 59.7429 31.9281 59.3804C31.6392 59.0179 31.4921 58.5188 31.4921 57.8725L31.4868 57.883ZM33.0998 59.4802C33.4098 59.4802 33.6514 59.3857 33.8248 59.1965C33.9982 59.0074 34.0823 58.7342 34.0823 58.3769C34.0823 58.0669 34.0035 57.8253 33.8458 57.6519C33.6882 57.4785 33.4465 57.3892 33.1313 57.3892C32.9317 57.3892 32.753 57.426 32.5901 57.51C32.4273 57.5888 32.2959 57.6939 32.2014 57.8358C32.1015 57.9724 32.0542 58.1142 32.0542 58.2613C32.0542 58.482 32.1015 58.6816 32.1856 58.8708C32.2749 59.0599 32.401 59.207 32.5586 59.3174C32.7215 59.4277 32.9001 59.4855 33.1103 59.4855L33.0998 59.4802Z" fill="#212121"/>
<path d="M45.6198 53.7433C46.1242 53.7433 46.5235 53.8641 46.8125 54.1058C47.1014 54.3475 47.2486 54.6785 47.2486 55.0988C47.2486 55.5769 47.0909 55.9552 46.7757 56.2284C46.4605 56.5016 46.0244 56.6382 45.4675 56.6382C44.9106 56.6382 44.5165 56.5541 44.2275 56.386V55.8764C44.3799 55.9709 44.569 56.0445 44.8002 56.1023C45.0261 56.1548 45.2521 56.1811 45.4727 56.1811C45.8563 56.1811 46.1557 56.097 46.3711 55.9184C46.5866 55.745 46.6916 55.4928 46.6916 55.1566C46.6916 54.5104 46.2818 54.1846 45.4622 54.1846C45.2521 54.1846 44.9736 54.2161 44.6268 54.2792L44.3431 54.1005L44.5218 51.9307H46.907V52.4193H44.9894L44.8685 53.8116C45.1207 53.7643 45.3729 53.738 45.6198 53.738V53.7433Z" fill="#212121"/>
<path d="M56.7897 46.5241H56.0752V47.5907H55.555V46.5241H53.217V46.0618L55.4972 42.9199H56.0752V46.0408H56.7897V46.5189V46.5241ZM55.555 46.046V44.5014C55.555 44.1966 55.5656 43.8551 55.5866 43.4768H55.5603C55.4552 43.6765 55.3554 43.8499 55.2661 43.9812L53.7635 46.046H55.555Z" fill="#212121"/>
<path d="M59.7844 31.7711C59.7844 32.0653 59.6951 32.3123 59.527 32.4961C59.3536 32.6853 59.1119 32.8114 58.7967 32.8744V32.9007C59.1802 32.948 59.4692 33.0636 59.6531 33.258C59.837 33.4471 59.9315 33.6993 59.9315 34.0093C59.9315 34.4506 59.7739 34.7921 59.4587 35.0338C59.1382 35.2702 58.6916 35.3911 58.1084 35.3911C57.851 35.3911 57.6198 35.3753 57.4096 35.3385C57.1995 35.3018 56.9893 35.2334 56.7949 35.1441V34.6398C56.9998 34.7396 57.2257 34.8131 57.4622 34.8657C57.6986 34.9182 57.9193 34.9445 58.1294 34.9445C58.9595 34.9445 59.3746 34.6292 59.3746 34.004C59.3746 33.4419 58.9175 33.1581 58.0033 33.1581H57.5305V32.7063H58.0086C58.3816 32.7063 58.6758 32.6275 58.9018 32.4646C59.1172 32.307 59.2275 32.0863 59.2275 31.7974C59.2275 31.5715 59.1487 31.3928 58.9858 31.2615C58.8282 31.1354 58.6075 31.0671 58.3291 31.0671C58.1189 31.0671 57.9193 31.0933 57.7354 31.1511C57.5462 31.2037 57.3361 31.3088 57.0997 31.4559L56.8212 31.0986C57.0208 30.9462 57.2468 30.8306 57.5042 30.7413C57.7616 30.6573 58.0296 30.6152 58.3133 30.6152C58.7809 30.6152 59.1434 30.7203 59.4009 30.9252C59.6583 31.1301 59.7897 31.4138 59.7897 31.7764L59.7844 31.7711Z" fill="#212121"/>
<path d="M56.5587 23.0548H53.4011V22.603L54.6673 21.3736C55.0509 20.9953 55.3083 20.7273 55.4291 20.5644C55.55 20.4068 55.6446 20.244 55.7076 20.0916C55.7706 19.9392 55.8022 19.7764 55.8022 19.603C55.8022 19.356 55.7234 19.1564 55.571 19.0145C55.4134 18.8674 55.198 18.7991 54.9248 18.7991C54.7251 18.7991 54.536 18.8306 54.3573 18.8937C54.1787 18.9567 53.9791 19.0723 53.7636 19.2405L53.4747 18.8832C53.9213 18.5259 54.3994 18.3525 54.9195 18.3525C55.3714 18.3525 55.7234 18.4629 55.9808 18.6835C56.2383 18.9095 56.3643 19.2089 56.3643 19.582C56.3643 19.8762 56.2803 20.1704 56.1069 20.4541C55.9335 20.7431 55.6183 21.1056 55.1507 21.5469L54.0999 22.5399V22.5662H56.5692V23.0548H56.5587Z" fill="#212121"/>
<path d="M46.1348 14.0703H45.6042V10.7603C45.6042 10.4871 45.6147 10.2244 45.6304 9.97744C45.5831 10.0247 45.5306 10.072 45.4781 10.1193C45.4203 10.1718 45.1576 10.3767 44.6952 10.7393L44.4062 10.3767L45.6777 9.42578H46.1401V14.0703H46.1348Z" fill="#212121"/>
<path d="M31.5288 10.7861H30.9982V7.4761C30.9982 7.2029 31.0087 6.9402 31.0245 6.69327C30.9772 6.74055 30.9299 6.78258 30.8721 6.83512C30.8143 6.88241 30.5569 7.09256 30.0893 7.45509L29.8003 7.09256L31.0717 6.1416H31.5288V10.7861Z" fill="#212121"/>
<path d="M36.5095 10.7866H33.3572V10.3348L34.6181 9.10537C35.0017 8.72709 35.2591 8.45914 35.3799 8.29626C35.5008 8.13865 35.5954 7.97577 35.6531 7.82866C35.7162 7.6763 35.7477 7.51343 35.7477 7.33479C35.7477 7.08786 35.6689 6.88821 35.5165 6.74635C35.3589 6.59924 35.1435 6.53094 34.8703 6.53094C34.6707 6.53094 34.4815 6.56246 34.3029 6.62551C34.1243 6.68856 33.9246 6.80415 33.7092 6.97227L33.4202 6.615C33.8616 6.25774 34.3449 6.0791 34.8651 6.0791C35.3169 6.0791 35.6689 6.18943 35.9264 6.41535C36.1838 6.63602 36.3099 6.94075 36.3099 7.31378C36.3099 7.608 36.2258 7.90222 36.0524 8.18593C35.8791 8.4749 35.5638 8.83742 35.091 9.27875L34.0402 10.2717V10.298H36.5095V10.7866V10.7866Z" fill="#212121"/>
</g>
<defs>
<clipPath id="clip0_114_3396">
<rect width="66" height="66" fill="white"/>
</clipPath>
</defs>
</svg>
