<svg width="41" height="20" viewBox="0 0 41 20" fill="none" xmlns="http://www.w3.org/2000/svg">
<path d="M40.7338 0L19.5394 13.2399L18.6252 14.4746C18.1891 14.1489 17.6532 13.9492 17.0648 13.9492C16.3975 13.9492 15.7933 14.2067 15.3257 14.6165L14.3065 13.4659L0 6.71979L12.993 15.7408L14.4904 16.0455C14.4536 16.2137 14.4378 16.3923 14.4378 16.5709C14.4378 18.021 15.6147 19.1979 17.0648 19.1979C18.5149 19.1979 19.6918 18.021 19.6918 16.5709C19.6918 16.3082 19.6445 16.0666 19.5709 15.8249L21.0473 15.3888L40.739 0H40.7338ZM17.0648 18.1261C16.2084 18.1261 15.5149 17.4326 15.5149 16.5762C15.5149 15.7198 16.2084 15.0263 17.0648 15.0263C17.9212 15.0263 18.6147 15.7198 18.6147 16.5762C18.6147 17.4326 17.9212 18.1261 17.0648 18.1261Z" fill="#212121"/>
</svg>
