<svg width="12" height="39" viewBox="0 0 12 39" fill="none" xmlns="http://www.w3.org/2000/svg">
<path d="M10.846 0.90978C10.6674 0.862494 10.4888 0.967572 10.4415 1.14095L8.8863 6.94656C8.60784 7.02537 8.40294 7.26705 8.40294 7.56652C8.40294 7.74516 8.47649 7.91328 8.59733 8.02887L0.585073 37.929C0.537787 38.1024 0.642865 38.2863 0.816245 38.3336C0.842515 38.3389 0.874039 38.3441 0.900308 38.3441C1.04742 38.3441 1.17877 38.2495 1.21555 38.1024L9.23306 8.19174C9.51152 8.11293 9.71642 7.87125 9.71642 7.57178C9.71642 7.39314 9.64286 7.22502 9.52202 7.10943L11.0772 1.31433C11.1245 1.14095 11.0194 0.957065 10.846 0.90978V0.90978Z" fill="#2621F6"/>
</svg>
